<?xml version="1.0" encoding="UTF-8"?><svg id="Layer_1" xmlns="http://www.w3.org/2000/svg" viewBox="0 0 305.32 54.63"><path d="m126.01,23.32c.36,0,.68.03.95.07-.02-.1-.04-.22-.06-.34-.07-.47-.26-1.74-.58-3.25l-.04-.18c-.1-.48-.2-.97-.34-1.44l-.02-.08h0c-.48-1.84-2.1-4.99-5.22-5.44-.88-.13-1.67-.19-2.35-.19-.16,0-.32,0-.47.01,1.69,2.98,4.35,7.33,6.96,10.94.36-.08.75-.12,1.16-.12Zm4.39,15.87c.74.82,1.49,1.75,2.73,2.86.34.31.73.46.93.46h0c.1,0,.79,0,.88-.02l-.92-4.63.73-1.26c-.34.15-1.32.56-1.76.75-.83.37-2.06.91-2.9,1.27.09.25.19.45.31.57Zm-6.66-27.02c.55,0,.85-.13,1.01-.26.53.14,2.1.62,3.84,1.81.16.11.48.33.91.68.35.29.7.6,1.04.95.15.15.3.3.45.47.21-.19.43-.37.64-.54-.13-.13-.26-.25-.39-.35-.08-.07-.18-.15-.28-.24-.15-.13-.27-.22-.34-.27h0c-1.24-.99-3.37-2.44-5.74-2.97-.07-.14-.26-.3-.75-.39-.82-.15-1.65.17-1.67.56,0,.13.27.55,1.27.54Zm-17.65,5.88c2.05,2.34,4.44,4.3,7.11,5.83,2.13,1.22,4.45,2.17,6.88,2.82.84.23,1.7.41,2.56.56.07.01.14.02.21.04.07.01.14.03.21.04,0,0,0,0,0,0,.5.08,1.08.17,1.54.2h0c.77.08,1.51.16,1.51.16-.36.16-.83.3-1.26.39.2.46.6,1.45.69,1.76.32,1.12.52,2.14.63,3.14.16,1.53.13,3.15-.1,4.8.1-.02.19-.05.29-.07.22-.06.77-.25,1.05-.34-.03-.17-.06-.37-.06-.37-.16-1.11-.39-3.87-.39-6.13,0-.63.72-1.61,1.67-1.61.39,0,.79.16,1.17.48.56.5.51,1.3.42,2.51,0,.12-.02.24-.03.37-.01.21-.04.46-.08.72-.05.39-.11.83-.11,1.23,0,.2,0,.38,0,.56.49-.64.92-1.38,1.27-2.21,0-.39-.05-2.03-.95-4.39v-.02s0-.01,0-.01c-.06-.17-.13-.35-.21-.54l-.09-.19h0c-.06-.12-.13-.24-.2-.36-.47-.86-1.76-2.84-3.78-2.84h-.1s-.04,0-.06,0c.26.3,1.35,1.53,1.35,1.53l-.69.1-.06-.03c-.49-.28-.9-.5-1.75-1.36-.87.37-1.17.72-1.27.88.35.41.6.85.89,1.41-.39-.06-.93-.15-1.7-.38-.14-.21-.27-.39-.38-.53-2.17-1.26-3.96-1.95-7.37-2.63,0,0-.63-.18-.79-.25-.03-.01-.05-.02-.03-.02,2.22,0,4.51.37,6.99,1.12l.12.04s.12.03.12.03c.23.07.47.15.72.23.12.05.23.1.34.16.2-.32.5-.54.67-.65.2-.14.43-.26.68-.37-.53-.64-1.92-2.35-2.08-2.55-2.67-3.35-3.67-5.02-4.83-6.97-.26-.43-.52-.87-.81-1.35-.96-1.58-1.8-2.95-2.41-3.82-.35-.5-.71-1.04-1.06-1.57-1.73-2.61-3.51-5.31-5.92-5.48-.04,0-.09,0-.13,0-1.2,0-2.57,1.13-3.4,2.8-.82,1.65-1.09,3.69-.76,5.74.41,2.54,1.67,5.03,3.75,7.41Zm-.45,22.78c-.03.14-.07.27-.07.33,0,0,.01,0,.02.01,1.27.44,2.64.82,4.08,1.13l.23-.81.53.04c1.13.09,2.18.13,3.2.13.86,0,1.68-.03,2.51-.09,1.06-5.34.69-9.7.2-12.42l-.04-.23s0-.04-.01-.06c-.01-.06-.02-.12-.04-.19,0-.01,0-.03,0-.04-.01-.06-.03-.13-.04-.18,0-.02,0-.03,0-.04-.01-.07-.03-.14-.04-.21,0-.02-.01-.05-.02-.07-.1-.41-.31-1.06-.47-1.56-.1-.04-.19-.08-.29-.13l-.07-.03c-.21-.09-.43-.19-.64-.29-1.13-.57-2.7-1.46-3.05-1.65-3.02.67-5.39,1.74-5.98,2.02.19.85.44,2.18.6,3.9.22,2.37.3,6.08-.55,10.29l-.04.15ZM127.39,6.35c.61.36,1.59.34,1.98.29h0c.25.13.59.33,1.04.64,1.37.93,3.24,3.34,4.06,5.41.17.42.29.84.4,1.26,0,0,0,0,0,0,.07.28.13.58.18.88,0,0,0,0,0,0,.21,1.27.19,2.45.19,2.45,0,0,.18.1.43-.05.3-.18.43-.35.48-.45.03.06.04.13.04.2,0,.4-.49.72-1.09.72s-1.09-.32-1.09-.72c0-.32.32-.59.77-.68-.02-.38-.07-.87-.16-1.4-1.1.27-2.12.73-3.06,1.39-1.56,1.1-2.61,2.57-3.06,3.59-.52,1.16-.77,2.56-.86,3.44-.01.14-.03.28-.03.4.02,0,.05.02.09.03,0,0,0,0,0,0h0c.05.02.1.04.14.05,1.32.57,2.3,1.76,3.05,3.3.75,1.54.85,2.14,1.7,2.58.07.04.14.06.2.07.12.04.24.07.37.09,1.51.18,1.93.06,2.58-1.1.02-.03.03-.06.05-.09-1.18-.06-2.13-.15-2.31-.24-.18-.09-.28-.3-.22-.5l2.01-7.23c.21-.04.47-.1.78-.17.04,0,.07-.02.11-.03.01,0,.02,0,.04,0,.05-.01.09-.02.14-.03,0,0,0,0,.01,0,.05-.01.11-.03.16-.04.01,0,.02,0,.03,0,.04-.01.09-.02.13-.03.01,0,.03,0,.04,0,.11-.03.22-.06.33-.08.01,0,.03,0,.04-.01.04-.01.09-.02.13-.03.01,0,.03,0,.04-.01.06-.01.11-.03.17-.04,0,0,0,0,.01,0,.05-.01.11-.03.16-.04.02,0,.03,0,.05-.01.05-.01.09-.03.14-.04.01,0,.03,0,.04,0,.06-.02.12-.03.18-.05,0,0,.02,0,.03,0,.05-.01.1-.03.15-.04.02,0,.03,0,.05-.01.05-.01.1-.03.16-.04,0,0,.02,0,.03,0,.06-.02.12-.03.18-.05.01,0,.03,0,.04-.01.05-.01.1-.03.15-.04.02,0,.03-.01.05-.02.06-.02.12-.03.17-.05,0,0,0,0,.01,0,.06-.02.13-.04.19-.05.02,0,.03,0,.05-.01.05-.01.1-.03.15-.04l.05-.02c.06-.02.13-.04.19-.06,0,0,0,0,.01,0,.06-.02.12-.04.18-.05.02,0,.04-.01.05-.02.05-.01.1-.03.15-.04.02,0,.03,0,.05-.01.06-.02.13-.04.19-.06.01,0,.02,0,.03-.01.05-.02.11-.03.16-.05l.06-.02c.05-.02.11-.03.16-.05.01,0,.02,0,.04-.01.06-.02.13-.04.19-.06.02,0,.03,0,.05-.02.05-.02.1-.03.15-.05.02,0,.04-.01.06-.02.06-.02.11-.04.17-.06,0,0,.02,0,.02,0,.06-.02.13-.04.19-.06.02,0,.04-.01.05-.02.05-.02.1-.03.15-.05.02,0,.04-.01.05-.02.06-.02.13-.04.19-.07,0,0,0,0,.01,0,.06-.02.12-.04.18-.06.02,0,.04-.01.06-.02.05-.02.1-.03.14-.05.02,0,.03-.01.05-.02.06-.02.12-.04.19-.07.01,0,.02,0,.03-.01.05-.02.1-.04.15-.06.02,0,.04-.01.06-.02.05-.02.1-.04.15-.06.01,0,.03-.01.04-.02.06-.02.12-.05.18-.07.01,0,.03-.01.04-.02.05-.02.09-.04.14-.06.02,0,.04-.01.05-.02.05-.02.1-.04.15-.06,0,0,.02,0,.03-.01.06-.02.12-.05.17-.07.02,0,.03-.01.05-.02.04-.02.09-.04.13-.06.02,0,.03-.01.05-.02.05-.02.11-.05.16-.07-.52-.6-1.04-1.06-1.38-1.34-1.28-1.01-2.76-1.64-4.4-1.86-.89-.12-1.75-.14-2.57-.05-.25-1.15-.57-1.9-.68-2.18-1.83-4.47-5.52-6.3-5.52-6.3-.44-.86-1.83-1.29-2.63-1.19-.8.1-.44.88.34,1.35Zm16.74,18.27c.18.12.78.16.83-.27.03-.34-.26-.49-.48-.55-.6-.1-1.33-.15-2.19-.09.28.64.87,1.73,1.83,2.04.66.22,1.41.02,2.25-.57-.03-.19-.12-.53-.3-.92-.14-.06-.26-.12-.57-.22.38.43.41,1.01.07,1.15-1.08.46-1.61-.69-1.43-.57Zm-5.58-1.8v.02s0,.02,0,.02v.02s-.01.03-.01.03c-.01.08-.03.17-.04.26v.02c-.16.99-.66,3.37-1.13,4.75.1,0,.19,0,.29,0h0c2.69.18,5.92-.28,7.64-.65.68-.15,1.36-.31,2.03-.5-.18-.22-.36-.43-.49-.58-.08-.09-.14-.16-.15-.17-.84.28-1.41.39-2.06.39-.31,0-.61-.05-.9-.14-1.89-.63-2.71-2.8-2.77-2.97l-.16-.28h.07s0-.02,0-.02h.04s.18-.02.18-.02c.88-.14,1.73-.21,2.5-.21.72,0,1.38.06,1.94.18-.26-.85-.67-1.45-1.02-1.85-1.31.61-3.2,1.29-5.96,1.7Zm5.26-4.02s-.05.02-.07.03c-.06.02-.11.04-.17.07-.03.01-.05.02-.08.03-.06.02-.12.04-.17.07-.02,0-.05.02-.07.03-.16.06-.32.12-.48.18-.02,0-.05.02-.07.03-.06.02-.11.04-.17.06-.03.01-.06.02-.09.03-.05.02-.1.04-.15.05-.03.01-.06.02-.09.03-.05.02-.11.04-.16.05-.03,0-.05.02-.08.03-.07.02-.13.04-.19.06-.02,0-.03.01-.05.02-.08.03-.16.05-.24.08-.02,0-.05.02-.07.02-.06.02-.12.04-.17.06-.03,0-.06.02-.09.03-.05.02-.1.03-.15.05-.03.01-.06.02-.1.03-.05.02-.1.03-.15.05-.03,0-.06.02-.09.03-.06.02-.11.04-.17.05l-.07.02c-.08.02-.16.05-.24.07-.02,0-.04.01-.06.02-.06.02-.12.04-.18.05-.03,0-.06.02-.09.03-.05.02-.1.03-.15.05-.03,0-.06.02-.09.03-.05.01-.1.03-.15.04-.03,0-.06.02-.09.03-.05.02-.11.03-.16.05-.02,0-.05.01-.07.02-.41.12-.81.22-1.19.33-.02,0-.03,0-.05.01,0,0,0,0,0,0-.15.04-.3.08-.45.12-.02,0-.04,0-.06.01-.12.03-.24.06-.36.09-.02,0-.05.01-.07.02,0,0,0,0,0,0,0,0,0,0,0,0-.06.01-.11.03-.17.04,0,0,0,0,0,0-.09.02-.17.04-.25.06-.03,0-.06.01-.09.02h0s-.02,0-.03,0c-.05.01-.09.02-.14.03,0,0,0,0,0,0-.03,0-.05.01-.07.02-.05.01-.1.02-.16.04l-1.81,6.51c.39.04,1.04.1,1.99.14.75-1.84,1.22-5.27,1.22-5.31l.05-.34.34-.04c4.09-.54,6.74-1.93,7.63-2.46-.22-.43-.49-.84-.78-1.21-.27.12-.56.24-.85.35Zm-9.21,24.33h-.03c-.78,0-1.31-.11-1.67-.34h-.01s-.01-.02-.01-.02c-.01-.01-1.13-1.25-2.06-2.23-1.3-1.6-1.7-3.46-1.68-4.38,0-.17,0-.32,0-.44-.07-1.26-.02-2.64.09-3.62.05-.44.08-.79.08-.92-.01-.36-.28-.78-.62-.8h-.02c-.33,0-.69.3-.72.85-.03.63-.1,3.15.02,4.42.1.97.31,1.81.37,2.18l.02.1c.49,2.23,2.78,4.7,2.8,4.72.04.04.1.11.58,1.86.02.08.05.18.06.25.03.12.3,1.02.38,1.3.01.04.14.11.44.11.15,0,.33-.02.51-.05.67-.11,1.16-.36,1.3-.66.13-.27.19-.43.22-.5l-.35-.8c-.08-.18-.06-.33.06-.47.08-.1.23-.15.43-.15.05,0,.09,0,.13,0,.11,0,.18.01.23.01.03,0,.04,0,.05,0,0,0,.01-.02.02-.03h0c.03-.06.02-.12,0-.18-.08-.14-.31-.22-.62-.22Zm1.02-6.82c-.13.05-.3.12-.5.2l-.6,1.74.8,4.27c.49.16.56.39.65.72.06.21-.04.51-.13.61l1.56-.75c-.25-.95-.62-2.33-.96-3.65-.33-1.26-.64-2.45-.83-3.15Zm12.33-8.55s0-.02-.01-.04c-.01-.03-.03-.09-.08-.2-.04-.08-.08-.13-.13-.22-.79.22-1.6.43-2.41.6-.83.18-1.86.38-3.04.53l-.49.06c-1.22.15-2.58.25-3.98.25-.27,0-.55,0-.84-.01,0,0-.02.03-.02.03h0s-.19.4-.19.4l-.06.11-.02.04s-.04.07-.06.11l-.02.03s-.04.07-.06.09c-.01.02-.02.04-.04.06-.02.03-.03.05-.05.08,0,.01-.01.02-.02.03v.02s-.09.12-.09.12c-.02.03-.04.05-.05.07l-.02.03s-.06.07-.07.08c-.01.02-.05.06-.05.06-.02.02-.03.04-.04.05-.01.01-.02.03-.04.05-.02.02-.04.04-.05.05-.01.01-.03.03-.05.05,0,0-.04.04-.05.05-.02.02-.04.03-.06.05-.01.01-.03.03-.04.03-.01.01-.03.02-.05.04,0,0-.05.04-.06.05-.02.01-.07.05-.07.05-.01,0-.03.02-.04.03-.04.02-.07.05-.11.07-.39.22-.85.33-1.44.33-.28,0-.59-.02-1-.07-.23-.03-.46-.08-.67-.17.16.8.22,1.43.24,1.85.19.2.7.68,1.57,1.12.83.42,2.24.92,4.28.92h0c.47,0,.97-.03,1.47-.08,1.48-.16,2.74-.61,3.8-1.35-.2-.07-.8-.29-1.19-.65-.41-.38-.74-1.07-.96-1.53-.04-.09-.08-.17-.11-.24-.13-.26-.61-.45-.78-.5l-.27-.08,1.83-1.05v.33c-.01.22.03,1.39.27,1.88l.06.14c.25.54.49,1.04,1.4,1.39l.11.04c.53-.42,1-.92,1.4-1.49.93-1.31,1.18-2.56,1.19-2.61l.08-.42.41-.1c.3-.07.84-.33.81-.52v-.04s-.01-.01-.01-.01Zm-17.9,15.26v-.02c-.39-.56-1.36-2.02-2.02-3.51-.61.25-1.23.5-1.74.7-.31.13-.59.24-.8.32l1.89,6.85,3.71-1.52c-.07-.2-.18-.54-.27-.89-.14-.57-.43-1.42-.77-1.94Zm19.82-16.22s-.42-2.66-.96-4.22c-.9-2.61-2.1-4.42-2.95-5.48l-.64.51c1.46,1.82,2.33,3.84,2.81,5.21.52,1.49.93,4.08.93,4.1h0s.81-.13.81-.13Zm-25.99,2.24c-.1-.25-.21-.5-.32-.75-.05,0-.1,0-.15-.01,0,0-.22-.02-.26-.02,0,0-.18-.02-.23-.02l-.29-.03-.37-.04s-.22-.03-.25-.03l-.4-.05s-.2-.03-.25-.04l-.2-.03-.29-.05s-.07-.01-.1-.02l-.11-.02-.26-.05-.33-.06s-.08-.02-.12-.02l-.11-.02s-.08-.02-.12-.02l-.29-.06s-.32-.07-.35-.08l-.11-.02s-.06-.01-.1-.02c-.04,0-.15-.04-.18-.04l-.21-.05s-.16-.04-.18-.04c-.04,0-.37-.09-.37-.09-.03,0-.06-.02-.1-.03,0,0-.09-.03-.12-.03l-.36-.1h0s-.04-.01-.04-.01c.1.42.18.85.18.87v.02s0,.06,0,.06v.07s.03.09.04.13l.05.23s.01.06.02.08c.02.08.03.15.04.23.51,2.76.89,7.17-.12,12.56,1.13-.13,2.14-.31,3.12-.49l.32-.06c.11-.02.55-.14,1.2-.34,1.31-.67,2.18-1.44,2.52-2.21.31-1.8.38-3.56.21-5.21-.15-1.44-.49-2.82-1-4.09Zm-8.78,19.04c-1.25,1.03-2.77,1.6-4.28,1.6s-2.72-.53-3.54-1.5c-.77-.9-1.07-2.11-.86-3.39.03-.18.07-.35.11-.52-1.04-.3-1.93-.65-2.68-.99-.1.34-.19.69-.24,1.04-.35,2.13.18,4.15,1.49,5.7.67.79,1.51,1.41,2.49,1.85.99.44,2.08.66,3.23.66,2.17,0,4.33-.8,6.09-2.24,1.77-1.46,2.94-3.41,3.29-5.5.03-.17.05-.34.07-.51-1.2.27-2.19.47-3,.61-.33,1.2-1.09,2.32-2.16,3.2Zm-6.37-4.33c-.06.2-.11.43-.15.68-.15,1.13.24,2.08,1.12,2.73.42.31.91.47,1.48.47.49,0,1.03-.12,1.63-.35,1.36-.52,2.37-1.82,2.6-2.14-.4.04-.71.07-.97.09-.42.47-1.09,1.1-1.88,1.41-1.08.41-1.86.4-2.45-.03-.67-.5-.96-1.19-.85-2.06.02-.13.04-.26.07-.38.04-.19.17-.68.25-.92h0s0,0,0,0c-1.43-.24-2.59-.64-2.76-.69h0c-.53-.16-1.05-.32-1.56-.5-.46-.16-.86-.31-1.16-.43t0,0c-.42-.17-.83-.35-1.23-.53-.58-.27-1.14-.55-1.68-.85.12.26.21.7.34.98.33.19,1.35.76,2.69,1.3.67.27,1.74.81,4.51,1.23Zm-4.39-3.06c.87-4.15.8-7.82.59-10.19-.13-1.46-.34-2.63-.5-3.42-1.96,1.12-3.56,2.81-4.56,4.05-1.3,1.6-2.08,3-2.17,3.16l-.09.17-.96.53c.36.57,1.08,1.54,2.37,2.62,1.2,1,2.66,1.9,4.32,2.66.33.15.67.3,1.01.43Zm16.8,1.29l-.29.05c-2.04.36-4.15.74-7.21.74-.94,0-1.9-.04-2.92-.11l-.66,2.34c0,.12.06.46.29.69.2.2.49.3.89.3,1.27,0,1.75-.65,2.1-.96.69-.62,1.17-.78,2.7-.93,1.45-.14,4.92-.77,5.63-.97.02-.01.27-.17.65-1.16.04-.11.1-.25.14-.36-.02,0-.09.03-.09.03-.5.15-1.04.31-1.22.34Z" style="fill:#1451A6;"/><g><polygon points="21.61 38.73 24.81 22.71 33.63 22.71 34.35 19.1 24.63 19.1 5.13 19.1 4.41 22.71 12.91 22.71 9.7 38.73 21.61 38.73" style="fill:#1451A6; fill-rule:evenodd;"/><path d="m40.88,30.56h17.31l.64-3.22h-17.31l.32-1.58c.96-2.04,2.98-3.06,6.05-3.06h11.87l.72-3.6h-19.44c-4.08.02-7.24,1.52-9.46,4.51-.91,1.24-1.62,2.74-2.12,4.47l-.75,3.76c-.16,1.33-.06,2.48.31,3.44.85,2.32,3.52,3.46,8.03,3.44h19.5s.71-3.54.71-3.54h-12.23c-3.32-.15-4.79-1.27-4.42-3.35l.26-1.29Z" style="fill:#1451A6; fill-rule:evenodd;"/><path d="m67.81,26.89l-2.37,11.84h-6.82l3.21-16.02.72-3.6h8.37c2.36,0,3.97.58,4.83,1.74l1.15,1.8,2-1.8c1.33-1.16,3.17-1.74,5.53-1.74h8.37l-.68,3.41-3.24,16.22h-6.82l2.37-11.84-8.32,7.63c-1.29,1.18-2.33,1.19-3.13.03l-5.16-7.66Z" style="fill:#1451A6; fill-rule:evenodd;"/></g><g><polygon points="184.44 38.73 180.39 25.02 188.41 18.87 181.36 18.87 169.36 27.15 171.01 18.87 159.05 18.87 157.24 27.9 156.49 31.68 155.1 38.6 167.07 38.6 167.78 35.04 168.71 30.39 169.49 30.39 172.48 38.73 178.49 38.73 184.44 38.73" style="fill:#1451A6; fill-rule:evenodd;"/><path d="m207.63,31.81c-.45,2.01-2.41,3.08-5.89,3.23-3.33-.15-4.81-1.27-4.44-3.36l1.22-6.11,1.34-6.69h-11.97l-2.56,12.81c-.16,1.34-.05,2.49.31,3.46.85,2.33,3.54,3.48,8.07,3.46h9.77c4.59.02,7.77-1.13,9.55-3.46.76-.97,1.32-2.12,1.69-3.46l.76-3.78,1.77-9.02h-7.05l-1.34,6.69-1.25,6.24Z" style="fill:#1451A6; fill-rule:evenodd;"/><path d="m238.32,27.15h-8.67l.32-1.58.61-3.07h5.47c2.67,0,4.16.71,4.46,2.13l-.25,1.26c-.17.84-.81,1.26-1.94,1.26Zm-9.15-8.28h-9.83l-2.56,12.81-1.38,6.92h11.97l1.64-8.21h.77l2.99,8.34h11.97l-2.79-8.34h.52c2.63,0,4.3-1.66,5.01-4.98-.02-1.64-.36-2.93-1.04-3.88-.92-1.75-3.43-2.63-7.52-2.65h-9.74Z" style="fill:#1451A6; fill-rule:evenodd;"/><polygon points="262.49 38.6 264.83 26.89 275.23 18.87 268.44 18.87 261.09 24.24 257.89 18.87 245.92 18.87 249.68 24.37 251.55 27.12 252.54 28.51 250.52 38.6 262.49 38.6" style="fill:#1451A6; fill-rule:evenodd;"/><path d="m281.21,30.39h17.4l.65-3.23h-17.4l.32-1.58c.97-2.05,3-3.07,6.08-3.07h11.93l.72-3.62h-19.53c-4.1.02-7.27,1.53-9.51,4.53-.92,1.25-1.63,2.75-2.13,4.5l-.76,3.78c-.16,1.34-.06,2.49.31,3.46.85,2.33,3.54,3.48,8.07,3.46h19.6l.71-3.56h-12.29c-3.33-.15-4.81-1.27-4.44-3.36l.26-1.3Z" style="fill:#1451A6; fill-rule:evenodd;"/></g></svg>
