<?xml version="1.0" encoding="UTF-8"?>
<svg xmlns="http://www.w3.org/2000/svg" version="1.1" viewBox="0 0 841.9 595.3">
  <defs>
    <style>
      .cls-1 {
        fill: #f47523;
      }
    </style>
  </defs>
  <!-- Generator: Adobe Illustrator 28.6.0, SVG Export Plug-In . SVG Version: 1.2.0 Build 709)  -->
  <g>
    <g id="Layer_1">
      <path class="cls-1" d="M90.8,225.2c1.6-.5,4.2-1,7.7-1.6,3.5-.6,7.1-.8,10.8-.8s6.7.2,9.5.7c2.8.5,5.2,1.4,7.1,2.9,1.9,1.4,3.4,3.4,4.3,5.9,1,2.5,1.4,5.7,1.4,9.7v23.5c4-1.6,7.8-2.7,11.4-3.4,3.6-.6,7.6-1,11.9-1,7.7,0,14.9,1.4,21.8,4.1,6.9,2.7,12.9,6.7,18.2,11.9,5.3,5.2,9.4,11.6,12.5,19.3,3,7.7,4.6,16.5,4.6,26.6s-1.6,19.5-4.7,27.2c-3.1,7.8-7.5,14.2-13.1,19.3-5.6,5.1-12.4,9-20.5,11.6-8.1,2.6-17,4-26.7,4s-19.5-1.2-26.9-3.7c-7.4-2.5-13.6-5.6-18.7-9.2-7-5-10.6-11.3-10.6-19.2v-127.8ZM146.9,353c7.4,0,13.1-2.5,17.1-7.6,4.1-5,6.1-12.5,6.1-22.4s-2.1-17.6-6.2-22.5c-4.2-5-9.8-7.4-16.8-7.4s-6,.3-8.3,1c-2.3.6-4.8,1.6-7.6,2.9v52.3c1.8,1.1,3.9,2,6.4,2.8,2.5.7,5.6,1.1,9.2,1.1Z"/>
      <path class="cls-1" d="M235.1,232.3c0-6.1,2-11.2,6.1-15.3,4.1-4.2,9.5-6.2,16.2-6.2s12.1,2.1,16.2,6.2c4.1,4.2,6.1,9.3,6.1,15.3s-2,11.2-6.1,15.3c-4.1,4.2-9.5,6.2-16.2,6.2s-12.1-2.1-16.2-6.2c-4.1-4.2-6.1-9.3-6.1-15.3ZM277.8,381c-1.8.3-4.4.8-7.8,1.3-3.4.6-6.9.8-10.4.8s-6.7-.2-9.5-.7c-2.8-.5-5.2-1.4-7.1-2.9-1.9-1.4-3.4-3.4-4.4-5.9-1-2.5-1.6-5.7-1.6-9.7v-97.6c1.8-.3,4.4-.8,7.8-1.3,3.4-.6,6.9-.8,10.4-.8s6.7.2,9.5.7c2.8.5,5.2,1.4,7.1,2.9,1.9,1.4,3.4,3.4,4.4,5.9,1,2.5,1.6,5.7,1.6,9.7v97.6Z"/>
      <path class="cls-1" d="M349.5,381c-1.8.3-4.4.8-7.8,1.3-3.4.6-6.9.8-10.4.8s-6.7-.2-9.5-.7c-2.8-.5-5.2-1.4-7.1-2.9s-3.4-3.4-4.4-5.9c-1-2.5-1.6-5.7-1.6-9.7v-139.1c1.8-.3,4.4-.8,7.8-1.3,3.4-.6,6.9-.8,10.4-.8s6.7.2,9.5.7c2.8.5,5.2,1.4,7.1,2.9,1.9,1.4,3.4,3.4,4.4,5.9,1,2.5,1.6,5.7,1.6,9.7v139.1Z"/>
      <path class="cls-1" d="M493.4,360.2c-.8,7.5-3,13.3-6.6,17.3-3.6,4-8.8,6-15.7,6s-9.7-1.2-13.7-3.7c-4-2.5-8.3-6.7-12.9-12.6l-23.7-29.7v43.6c-1.8.3-4.4.8-7.8,1.3-3.4.6-6.9.8-10.4.8s-6.7-.2-9.5-.7c-2.8-.5-5.2-1.4-7.1-2.9s-3.4-3.4-4.4-5.9c-1-2.5-1.6-5.7-1.6-9.7v-138.8c1.8-.5,4.4-1,7.8-1.6,3.4-.6,6.9-.8,10.4-.8s6.7.2,9.5.7c2.8.5,5.2,1.4,7.1,2.9,1.9,1.4,3.4,3.4,4.4,5.9,1,2.5,1.6,5.7,1.6,9.7v63.3l41.2-42.2c8.3,0,15,1.8,20,5.5,5,3.7,7.6,8.3,7.6,13.9s-.4,4.6-1.2,6.6c-.8,2-2,4-3.7,6.1-1.7,2.1-3.8,4.3-6.5,6.6-2.6,2.3-5.7,5-9.2,8l-13.9,12,38.4,38.4Z"/>
      <path class="cls-1" d="M565.3,261.1c8.6,0,16.5.9,23.6,2.6,7.1,1.8,13.2,4.4,18.2,8,5,3.6,8.9,8.2,11.6,13.7,2.7,5.5,4.1,12,4.1,19.5v53.7c0,4.2-1.2,7.6-3.5,10.2-2.3,2.6-5.1,4.9-8.3,6.8-10.4,6.2-25,9.4-43.9,9.4s-16.1-.8-22.9-2.4c-6.8-1.6-12.6-4-17.5-7.2-4.9-3.2-8.6-7.3-11.3-12.2-2.6-5-4-10.7-4-17.3,0-11,3.3-19.5,9.8-25.4,6.6-5.9,16.7-9.6,30.5-11l31.4-3.4v-1.7c0-4.6-2-8-6.1-10-4.1-2-10-3-17.6-3s-12,.6-17.7,1.9c-5.8,1.3-10.9,2.9-15.6,4.8-2.1-1.4-3.8-3.6-5.3-6.6-1.4-3-2.2-6-2.2-9.2s1-7.5,3-10c2-2.5,5.1-4.6,9.2-6.4,4.6-1.8,10.1-3,16.4-3.8,6.3-.8,12.3-1.2,17.9-1.2ZM567.2,355.4c2.7,0,5.7-.3,9-.8,3.3-.6,5.7-1.3,7.3-2.3v-19.2l-17.3,1.4c-4.5.3-8.2,1.3-11,2.9-2.9,1.6-4.3,4-4.3,7.2s1.2,5.8,3.7,7.8c2.5,2,6.7,3,12.6,3Z"/>
      <path class="cls-1" d="M750.4,346.5c0,12.1-4.6,21.7-13.7,28.5-9.1,6.9-22.5,10.3-40.3,10.3s-12.9-.5-18.7-1.4c-5.8-1-10.7-2.4-14.7-4.4-4.1-2-7.3-4.5-9.6-7.6-2.3-3-3.5-6.6-3.5-10.8s.8-7.1,2.4-9.7c1.6-2.6,3.5-4.8,5.8-6.6,4.6,2.6,10,4.8,15.9,6.8,6,2,12.9,3,20.7,3s8.8-.7,11.4-2.2c2.6-1.4,4-3.4,4-5.8s-1-4-2.9-5.3c-1.9-1.3-5.1-2.3-9.6-3.1l-7.2-1.4c-13.9-2.7-24.3-7-31.1-12.8-6.8-5.8-10.2-14.2-10.2-25.1s1.3-11.3,3.8-16.1c2.6-4.8,6.2-8.8,10.8-12,4.6-3.2,10.2-5.7,16.7-7.4,6.5-1.8,13.6-2.6,21.5-2.6s11.5.4,16.7,1.3c5.2.9,9.7,2.2,13.5,4,3.8,1.8,6.9,4,9.1,6.8,2.2,2.8,3.4,6.1,3.4,10s-.7,6.8-2,9.5c-1.4,2.6-3.1,4.8-5.2,6.6-1.3-.8-3.2-1.6-5.8-2.5-2.6-.9-5.4-1.7-8.4-2.4-3-.7-6.1-1.3-9.2-1.8-3.1-.5-6-.7-8.5-.7-5.3,0-9.4.6-12.2,1.8-2.9,1.2-4.3,3.1-4.3,5.6s.8,3.2,2.4,4.3c1.6,1.1,4.6,2.2,9.1,3.1l7.4,1.7c15.3,3.5,26.3,8.4,32.7,14.5,6.5,6.2,9.7,14.1,9.7,23.9Z"/>
    </g>
  </g>
</svg>